<svg width="53" height="52" viewBox="0 0 53 52" fill="none" xmlns="http://www.w3.org/2000/svg">
<path d="M45.05 11.7C45.05 13.8539 43.2703 15.6 41.075 15.6C38.8797 15.6 37.1 13.8539 37.1 11.7C37.1 9.54609 38.8797 7.8 41.075 7.8C43.2703 7.8 45.05 9.54609 45.05 11.7Z" fill="white"/>
<path fill-rule="evenodd" clip-rule="evenodd" d="M26.5 39C33.8178 39 39.75 33.1797 39.75 26C39.75 18.8203 33.8178 13 26.5 13C19.1822 13 13.25 18.8203 13.25 26C13.25 33.1797 19.1822 39 26.5 39ZM26.5 33.8C30.8907 33.8 34.45 30.3078 34.45 26C34.45 21.6922 30.8907 18.2 26.5 18.2C22.1093 18.2 18.55 21.6922 18.55 26C18.55 30.3078 22.1093 33.8 26.5 33.8Z" fill="white"/>
<path fill-rule="evenodd" clip-rule="evenodd" d="M0 24.96C0 16.2232 0 11.8548 1.733 8.51775C3.25738 5.58242 5.68977 3.19592 8.68155 1.7003C12.0827 0 16.5352 0 25.44 0H27.56C36.4648 0 40.9173 0 44.3185 1.7003C47.3102 3.19592 49.7426 5.58242 51.267 8.51775C53 11.8548 53 16.2232 53 24.96V27.04C53 35.7768 53 40.1452 51.267 43.4823C49.7426 46.4176 47.3102 48.8041 44.3185 50.2997C40.9173 52 36.4648 52 27.56 52H25.44C16.5352 52 12.0827 52 8.68155 50.2997C5.68977 48.8041 3.25738 46.4176 1.733 43.4823C0 40.1452 0 35.7768 0 27.04V24.96ZM25.44 5.2H27.56C32.0999 5.2 35.186 5.20404 37.5715 5.39527C39.8951 5.58153 41.0834 5.91915 41.9123 6.33353C43.9068 7.33062 45.5284 8.92161 46.5447 10.8785C46.967 11.6918 47.3111 12.8576 47.501 15.1374C47.6959 17.4779 47.7 20.5058 47.7 24.96V27.04C47.7 31.4942 47.6959 34.5221 47.501 36.8626C47.3111 39.1424 46.967 40.3082 46.5447 41.1215C45.5284 43.0784 43.9068 44.6694 41.9123 45.6665C41.0834 46.0809 39.8951 46.4185 37.5715 46.6047C35.186 46.796 32.0999 46.8 27.56 46.8H25.44C20.9001 46.8 17.814 46.796 15.4285 46.6047C13.1049 46.4185 11.9166 46.0809 11.0877 45.6665C9.09318 44.6694 7.47159 43.0784 6.45533 41.1215C6.03298 40.3082 5.68887 39.1424 5.49902 36.8626C5.30412 34.5221 5.3 31.4942 5.3 27.04V24.96C5.3 20.5058 5.30412 17.4779 5.49902 15.1374C5.68887 12.8576 6.03298 11.6918 6.45533 10.8785C7.47159 8.92161 9.09318 7.33062 11.0877 6.33353C11.9166 5.91915 13.1049 5.58153 15.4285 5.39527C17.814 5.20404 20.9001 5.2 25.44 5.2Z" fill="white"/>
</svg>
