<svg width="58" height="57" viewBox="0 0 58 57" fill="none" xmlns="http://www.w3.org/2000/svg">
<rect width="58" height="57" fill="#E5E5E5"/>
<g clip-path="url(#clip0_0_1)">
<rect width="1512" height="2609" transform="translate(-207 -2387)" fill="white"/>
<rect x="-207" y="-111" width="1512" height="333" fill="#3C699B"/>
<ellipse cx="29" cy="28.5" rx="29" ry="28.5" fill="#074080"/>
<path fill-rule="evenodd" clip-rule="evenodd" d="M46 18.1976C44.7866 18.7395 43.4801 19.1059 42.1114 19.2718C43.5092 18.4271 44.5828 17.0925 45.0875 15.5014C43.779 16.2825 42.3307 16.8495 40.7873 17.1523C39.5545 15.8293 37.7956 15 35.8465 15C32.1073 15 29.0768 18.0529 29.0768 21.8175C29.0768 22.3536 29.137 22.8724 29.2515 23.3719C23.6253 23.0884 18.6378 20.3749 15.2986 16.2516C14.7162 17.2545 14.3823 18.4271 14.3823 19.6768C14.3823 22.0412 15.5782 24.1279 17.3934 25.3487C16.2829 25.3121 15.2404 25.0054 14.3279 24.4963V24.5811C14.3279 27.8848 16.6595 30.6369 19.758 31.2656C19.1892 31.4218 18.5932 31.5047 17.9739 31.5047C17.539 31.5047 17.1138 31.4623 16.7023 31.3813C17.5623 34.089 20.0628 36.06 23.0254 36.114C20.7074 37.9423 17.7894 39.0339 14.6172 39.0339C14.0697 39.0339 13.53 39.0011 13 38.9394C15.9956 40.8718 19.5542 42 23.3788 42C35.8329 42 42.6414 31.6127 42.6414 22.6063C42.6414 22.3112 42.6336 22.0181 42.622 21.7269C43.946 20.7645 45.0934 19.5669 46 18.1995V18.1976Z" fill="white"/>
</g>
<defs>
<clipPath id="clip0_0_1">
<rect width="1512" height="2609" fill="white" transform="translate(-207 -2387)"/>
</clipPath>
</defs>
</svg>
