<svg width="439" height="254" viewBox="0 0 439 254" fill="none" xmlns="http://www.w3.org/2000/svg">
<rect width="439" height="254" fill="#E5E5E5"/>
<g clip-path="url(#clip0_0_1)">
<rect width="1512" height="2900" transform="translate(-540 -2222)" fill="white"/>
<g filter="url(#filter0_d_0_1)">
<rect x="-463" y="-28" width="1358" height="294" rx="59" fill="white"/>
</g>
<g filter="url(#filter1_d_0_1)">
<rect x="-426" y="12" width="411" height="226" rx="48" fill="white"/>
</g>
<g filter="url(#filter2_d_0_1)">
<rect x="10" y="12" width="411" height="226" rx="48" shape-rendering="crispEdges"/>
<rect x="10" y="12" width="411" height="226" rx="48" fill="#486191" fill-opacity="0.6" shape-rendering="crispEdges"/>
</g>
<path d="M92.0094 139V114.304H106.121C107.417 114.304 108.581 114.556 109.613 115.06C110.669 115.564 111.497 116.272 112.097 117.184C112.697 118.096 112.997 119.164 112.997 120.388C112.997 121.372 112.817 122.248 112.457 123.016C112.097 123.784 111.605 124.42 110.981 124.924C110.381 125.428 109.697 125.8 108.929 126.04V126.184C109.841 126.376 110.645 126.736 111.341 127.264C112.061 127.792 112.625 128.476 113.033 129.316C113.465 130.132 113.681 131.104 113.681 132.232C113.681 133.72 113.333 134.968 112.637 135.976C111.965 136.984 111.065 137.74 109.937 138.244C108.809 138.748 107.549 139 106.157 139H92.0094ZM97.3734 134.608H105.113C106.001 134.608 106.721 134.356 107.273 133.852C107.849 133.348 108.137 132.568 108.137 131.512C108.137 130.888 108.017 130.348 107.777 129.892C107.537 129.436 107.177 129.088 106.697 128.848C106.217 128.584 105.605 128.452 104.861 128.452H97.3734V134.608ZM97.3734 124.276H104.501C105.149 124.276 105.689 124.156 106.121 123.916C106.577 123.652 106.913 123.316 107.129 122.908C107.369 122.476 107.489 121.984 107.489 121.432C107.489 120.496 107.225 119.788 106.697 119.308C106.193 118.828 105.521 118.588 104.681 118.588H97.3734V124.276ZM117.558 117.292V112.972H122.562V117.292H117.558ZM117.558 139V120.064H122.562V139H117.558ZM127.156 139V112.936H132.16V127.948L138.784 120.064H144.652L138.172 127.48L144.976 139H139.252L134.896 131.008L132.16 133.672V139H127.156ZM155.06 139.432C152.972 139.432 151.22 139.084 149.804 138.388C148.388 137.668 147.32 136.576 146.6 135.112C145.88 133.648 145.52 131.788 145.52 129.532C145.52 127.252 145.88 125.392 146.6 123.952C147.32 122.488 148.376 121.408 149.768 120.712C151.184 119.992 152.912 119.632 154.952 119.632C156.872 119.632 158.492 119.98 159.812 120.676C161.132 121.348 162.128 122.404 162.8 123.844C163.472 125.26 163.808 127.096 163.808 129.352V130.648H150.596C150.644 131.752 150.812 132.688 151.1 133.456C151.412 134.224 151.88 134.8 152.504 135.184C153.152 135.544 154.004 135.724 155.06 135.724C155.636 135.724 156.152 135.652 156.608 135.508C157.088 135.364 157.496 135.148 157.832 134.86C158.168 134.572 158.432 134.212 158.624 133.78C158.816 133.348 158.912 132.856 158.912 132.304H163.808C163.808 133.504 163.592 134.548 163.16 135.436C162.728 136.324 162.128 137.068 161.36 137.668C160.592 138.244 159.668 138.688 158.588 139C157.532 139.288 156.356 139.432 155.06 139.432ZM150.668 127.48H158.66C158.66 126.76 158.564 126.136 158.372 125.608C158.204 125.08 157.964 124.648 157.652 124.312C157.34 123.976 156.956 123.736 156.5 123.592C156.068 123.424 155.576 123.34 155.024 123.34C154.112 123.34 153.344 123.496 152.72 123.808C152.12 124.096 151.652 124.552 151.316 125.176C151.004 125.776 150.788 126.544 150.668 127.48ZM174.978 139V114.304H187.83C189.606 114.304 191.082 114.64 192.258 115.312C193.458 115.96 194.358 116.884 194.958 118.084C195.582 119.26 195.894 120.664 195.894 122.296C195.894 123.928 195.57 125.356 194.922 126.58C194.298 127.78 193.374 128.716 192.15 129.388C190.926 130.06 189.426 130.396 187.65 130.396H180.342V139H174.978ZM180.342 126.004H186.93C188.058 126.004 188.922 125.68 189.522 125.032C190.146 124.384 190.458 123.484 190.458 122.332C190.458 121.54 190.326 120.88 190.062 120.352C189.798 119.824 189.402 119.416 188.874 119.128C188.37 118.84 187.722 118.696 186.93 118.696H180.342V126.004ZM203.632 139.432C203.008 139.432 202.336 139.36 201.616 139.216C200.92 139.072 200.26 138.82 199.636 138.46C199.012 138.076 198.496 137.536 198.088 136.84C197.704 136.12 197.512 135.208 197.512 134.104C197.512 132.784 197.8 131.692 198.376 130.828C198.952 129.964 199.768 129.292 200.824 128.812C201.904 128.308 203.188 127.96 204.676 127.768C206.164 127.576 207.808 127.48 209.608 127.48V126.076C209.608 125.524 209.512 125.044 209.32 124.636C209.152 124.228 208.84 123.904 208.384 123.664C207.952 123.424 207.34 123.304 206.548 123.304C205.756 123.304 205.108 123.4 204.604 123.592C204.124 123.784 203.776 124.036 203.56 124.348C203.368 124.636 203.272 124.96 203.272 125.32V125.752H198.412C198.388 125.632 198.376 125.524 198.376 125.428C198.376 125.308 198.376 125.164 198.376 124.996C198.376 123.892 198.712 122.944 199.384 122.152C200.056 121.336 201.004 120.712 202.228 120.28C203.452 119.848 204.88 119.632 206.512 119.632C208.264 119.632 209.728 119.86 210.904 120.316C212.104 120.772 213.016 121.444 213.64 122.332C214.288 123.22 214.612 124.336 214.612 125.68V134.284C214.612 134.716 214.732 135.04 214.972 135.256C215.236 135.448 215.524 135.544 215.836 135.544H217.024V138.82C216.784 138.94 216.412 139.06 215.908 139.18C215.404 139.324 214.792 139.396 214.072 139.396C213.376 139.396 212.752 139.288 212.2 139.072C211.672 138.88 211.228 138.604 210.868 138.244C210.508 137.86 210.256 137.404 210.112 136.876H209.86C209.452 137.38 208.948 137.824 208.348 138.208C207.772 138.592 207.088 138.892 206.296 139.108C205.528 139.324 204.64 139.432 203.632 139.432ZM205.324 135.652C205.996 135.652 206.596 135.556 207.124 135.364C207.652 135.148 208.096 134.872 208.456 134.536C208.816 134.176 209.092 133.744 209.284 133.24C209.5 132.736 209.608 132.196 209.608 131.62V130.576C208.264 130.576 207.064 130.672 206.008 130.864C204.952 131.032 204.112 131.332 203.488 131.764C202.888 132.196 202.588 132.796 202.588 133.564C202.588 133.996 202.696 134.368 202.912 134.68C203.128 134.992 203.44 135.232 203.848 135.4C204.256 135.568 204.748 135.652 205.324 135.652ZM219.511 139V120.064H223.651L224.047 123.016H224.299C224.539 122.392 224.851 121.828 225.235 121.324C225.619 120.796 226.099 120.376 226.675 120.064C227.251 119.752 227.923 119.596 228.691 119.596C229.099 119.596 229.471 119.644 229.807 119.74C230.143 119.812 230.395 119.884 230.563 119.956V124.492H229.015C228.271 124.492 227.611 124.6 227.035 124.816C226.483 125.008 226.015 125.32 225.631 125.752C225.247 126.184 224.959 126.712 224.767 127.336C224.599 127.96 224.515 128.692 224.515 129.532V139H219.511ZM238.839 139.432C237.639 139.432 236.667 139.216 235.923 138.784C235.179 138.352 234.639 137.776 234.303 137.056C233.967 136.312 233.799 135.496 233.799 134.608V123.916H231.459V120.064H233.979L234.915 114.664H238.803V120.064H242.259V123.916H238.803V133.78C238.803 134.356 238.935 134.8 239.199 135.112C239.463 135.4 239.895 135.544 240.495 135.544H242.259V138.856C241.971 138.952 241.635 139.036 241.251 139.108C240.867 139.204 240.459 139.276 240.027 139.324C239.595 139.396 239.199 139.432 238.839 139.432ZM248.228 145.768C247.34 145.768 246.596 145.696 245.996 145.552C245.42 145.432 245.048 145.348 244.88 145.3V141.916H247.076C247.676 141.916 248.216 141.772 248.696 141.484C249.176 141.22 249.596 140.86 249.956 140.404C250.316 139.972 250.58 139.504 250.748 139L243.332 120.064H248.624L251.864 128.812C252.008 129.22 252.164 129.736 252.332 130.36C252.524 130.96 252.716 131.596 252.908 132.268C253.1 132.916 253.256 133.492 253.376 133.996H253.556C253.652 133.66 253.76 133.264 253.88 132.808C254 132.352 254.12 131.884 254.24 131.404C254.384 130.924 254.516 130.468 254.636 130.036C254.78 129.58 254.9 129.184 254.996 128.848L257.696 120.064H262.736L256.292 138.1C255.932 139.156 255.512 140.14 255.032 141.052C254.576 141.988 254.036 142.804 253.412 143.5C252.788 144.22 252.044 144.772 251.18 145.156C250.34 145.564 249.356 145.768 248.228 145.768ZM272.677 139V114.304H282.757C285.325 114.304 287.509 114.748 289.309 115.636C291.109 116.524 292.489 117.88 293.449 119.704C294.433 121.504 294.925 123.82 294.925 126.652C294.925 129.46 294.433 131.776 293.449 133.6C292.489 135.424 291.109 136.78 289.309 137.668C287.509 138.556 285.325 139 282.757 139H272.677ZM278.041 134.572H282.721C283.801 134.572 284.761 134.416 285.601 134.104C286.441 133.792 287.137 133.336 287.689 132.736C288.241 132.112 288.661 131.344 288.949 130.432C289.237 129.496 289.381 128.416 289.381 127.192V126.112C289.381 124.888 289.237 123.82 288.949 122.908C288.661 121.972 288.241 121.204 287.689 120.604C287.137 119.98 286.441 119.512 285.601 119.2C284.761 118.864 283.801 118.696 282.721 118.696H278.041V134.572ZM303.863 139.432C303.239 139.432 302.567 139.36 301.847 139.216C301.151 139.072 300.491 138.82 299.867 138.46C299.243 138.076 298.727 137.536 298.319 136.84C297.935 136.12 297.743 135.208 297.743 134.104C297.743 132.784 298.031 131.692 298.607 130.828C299.183 129.964 299.999 129.292 301.055 128.812C302.135 128.308 303.419 127.96 304.907 127.768C306.395 127.576 308.039 127.48 309.839 127.48V126.076C309.839 125.524 309.743 125.044 309.551 124.636C309.383 124.228 309.071 123.904 308.615 123.664C308.183 123.424 307.571 123.304 306.779 123.304C305.987 123.304 305.339 123.4 304.835 123.592C304.355 123.784 304.007 124.036 303.791 124.348C303.599 124.636 303.503 124.96 303.503 125.32V125.752H298.643C298.619 125.632 298.607 125.524 298.607 125.428C298.607 125.308 298.607 125.164 298.607 124.996C298.607 123.892 298.943 122.944 299.615 122.152C300.287 121.336 301.235 120.712 302.459 120.28C303.683 119.848 305.111 119.632 306.743 119.632C308.495 119.632 309.959 119.86 311.135 120.316C312.335 120.772 313.247 121.444 313.871 122.332C314.519 123.22 314.843 124.336 314.843 125.68V134.284C314.843 134.716 314.963 135.04 315.203 135.256C315.467 135.448 315.755 135.544 316.067 135.544H317.255V138.82C317.015 138.94 316.643 139.06 316.139 139.18C315.635 139.324 315.023 139.396 314.303 139.396C313.607 139.396 312.983 139.288 312.431 139.072C311.903 138.88 311.459 138.604 311.099 138.244C310.739 137.86 310.487 137.404 310.343 136.876H310.091C309.683 137.38 309.179 137.824 308.579 138.208C308.003 138.592 307.319 138.892 306.527 139.108C305.759 139.324 304.871 139.432 303.863 139.432ZM305.555 135.652C306.227 135.652 306.827 135.556 307.355 135.364C307.883 135.148 308.327 134.872 308.687 134.536C309.047 134.176 309.323 133.744 309.515 133.24C309.731 132.736 309.839 132.196 309.839 131.62V130.576C308.495 130.576 307.295 130.672 306.239 130.864C305.183 131.032 304.343 131.332 303.719 131.764C303.119 132.196 302.819 132.796 302.819 133.564C302.819 133.996 302.927 134.368 303.143 134.68C303.359 134.992 303.671 135.232 304.079 135.4C304.487 135.568 304.979 135.652 305.555 135.652ZM324.638 139L317.582 120.064H322.874L325.646 128.056C325.79 128.464 325.958 129.004 326.15 129.676C326.366 130.348 326.582 131.056 326.798 131.8C327.014 132.544 327.194 133.216 327.338 133.816H327.518C327.686 133.264 327.866 132.628 328.058 131.908C328.25 131.164 328.442 130.456 328.634 129.784C328.85 129.088 329.03 128.512 329.174 128.056L331.946 120.064H336.986L329.894 139H324.638ZM339.429 117.292V112.972H344.433V117.292H339.429ZM339.429 139V120.064H344.433V139H339.429ZM356.695 139.432C355.375 139.432 354.187 139.288 353.131 139C352.075 138.712 351.175 138.316 350.431 137.812C349.687 137.284 349.111 136.66 348.703 135.94C348.319 135.22 348.127 134.404 348.127 133.492C348.127 133.396 348.127 133.3 348.127 133.204C348.127 133.108 348.139 133.036 348.163 132.988H352.987C352.987 133.036 352.987 133.084 352.987 133.132C352.987 133.18 352.987 133.228 352.987 133.276C353.011 133.876 353.203 134.368 353.563 134.752C353.923 135.112 354.391 135.376 354.967 135.544C355.567 135.712 356.191 135.796 356.839 135.796C357.415 135.796 357.967 135.748 358.495 135.652C359.047 135.532 359.503 135.328 359.863 135.04C360.247 134.752 360.439 134.38 360.439 133.924C360.439 133.348 360.199 132.904 359.719 132.592C359.263 132.28 358.651 132.028 357.883 131.836C357.139 131.644 356.323 131.428 355.435 131.188C354.619 130.996 353.803 130.78 352.987 130.54C352.171 130.276 351.427 129.94 350.755 129.532C350.107 129.124 349.579 128.596 349.171 127.948C348.763 127.276 348.559 126.436 348.559 125.428C348.559 124.444 348.775 123.592 349.207 122.872C349.639 122.128 350.227 121.516 350.971 121.036C351.739 120.556 352.627 120.208 353.635 119.992C354.667 119.752 355.771 119.632 356.947 119.632C358.051 119.632 359.083 119.752 360.043 119.992C361.003 120.208 361.843 120.544 362.563 121C363.283 121.432 363.847 121.984 364.255 122.656C364.663 123.304 364.867 124.036 364.867 124.852C364.867 125.02 364.867 125.176 364.867 125.32C364.867 125.464 364.855 125.56 364.831 125.608H360.043V125.32C360.043 124.888 359.911 124.528 359.647 124.24C359.383 123.928 358.999 123.688 358.495 123.52C358.015 123.352 357.427 123.268 356.731 123.268C356.251 123.268 355.807 123.304 355.399 123.376C355.015 123.448 354.679 123.556 354.391 123.7C354.103 123.844 353.875 124.024 353.707 124.24C353.563 124.432 353.491 124.672 353.491 124.96C353.491 125.368 353.659 125.704 353.995 125.968C354.355 126.208 354.823 126.412 355.399 126.58C355.975 126.748 356.611 126.928 357.307 127.12C358.171 127.36 359.071 127.6 360.007 127.84C360.967 128.056 361.855 128.356 362.671 128.74C363.487 129.124 364.147 129.676 364.651 130.396C365.155 131.092 365.407 132.04 365.407 133.24C365.407 134.392 365.179 135.364 364.723 136.156C364.291 136.948 363.679 137.584 362.887 138.064C362.095 138.544 361.171 138.892 360.115 139.108C359.059 139.324 357.919 139.432 356.695 139.432Z" fill="white"/>
</g>
<defs>
<filter id="filter0_d_0_1" x="-489" y="-56" width="1422" height="358" filterUnits="userSpaceOnUse" color-interpolation-filters="sRGB">
<feFlood flood-opacity="0" result="BackgroundImageFix"/>
<feColorMatrix in="SourceAlpha" type="matrix" values="0 0 0 0 0 0 0 0 0 0 0 0 0 0 0 0 0 0 127 0" result="hardAlpha"/>
<feOffset dx="6" dy="4"/>
<feGaussianBlur stdDeviation="16"/>
<feComposite in2="hardAlpha" operator="out"/>
<feColorMatrix type="matrix" values="0 0 0 0 0 0 0 0 0 0 0 0 0 0 0 0 0 0 0.25 0"/>
<feBlend mode="normal" in2="BackgroundImageFix" result="effect1_dropShadow_0_1"/>
<feBlend mode="normal" in="SourceGraphic" in2="effect1_dropShadow_0_1" result="shape"/>
</filter>
<filter id="filter1_d_0_1" x="-436" y="0" width="439" height="254" filterUnits="userSpaceOnUse" color-interpolation-filters="sRGB">
<feFlood flood-opacity="0" result="BackgroundImageFix"/>
<feColorMatrix in="SourceAlpha" type="matrix" values="0 0 0 0 0 0 0 0 0 0 0 0 0 0 0 0 0 0 127 0" result="hardAlpha"/>
<feOffset dx="4" dy="2"/>
<feGaussianBlur stdDeviation="7"/>
<feComposite in2="hardAlpha" operator="out"/>
<feColorMatrix type="matrix" values="0 0 0 0 0 0 0 0 0 0 0 0 0 0 0 0 0 0 0.25 0"/>
<feBlend mode="normal" in2="BackgroundImageFix" result="effect1_dropShadow_0_1"/>
<feBlend mode="normal" in="SourceGraphic" in2="effect1_dropShadow_0_1" result="shape"/>
</filter>
<filter id="filter2_d_0_1" x="0" y="0" width="439" height="254" filterUnits="userSpaceOnUse" color-interpolation-filters="sRGB">
<feFlood flood-opacity="0" result="BackgroundImageFix"/>
<feColorMatrix in="SourceAlpha" type="matrix" values="0 0 0 0 0 0 0 0 0 0 0 0 0 0 0 0 0 0 127 0" result="hardAlpha"/>
<feOffset dx="4" dy="2"/>
<feGaussianBlur stdDeviation="7"/>
<feComposite in2="hardAlpha" operator="out"/>
<feColorMatrix type="matrix" values="0 0 0 0 0 0 0 0 0 0 0 0 0 0 0 0 0 0 0.25 0"/>
<feBlend mode="normal" in2="BackgroundImageFix" result="effect1_dropShadow_0_1"/>
<feBlend mode="normal" in="SourceGraphic" in2="effect1_dropShadow_0_1" result="shape"/>
</filter>
<clipPath id="clip0_0_1">
<rect width="1512" height="2900" fill="white" transform="translate(-540 -2222)"/>
</clipPath>
</defs>
</svg>
